<svg id="Layer_1" data-name="Layer 1" xmlns="http://www.w3.org/2000/svg" viewBox="0 0 721.62 466.46"><defs><style>.cls-1,.cls-2,.cls-3,.cls-4,.cls-5,.cls-6,.cls-8,.cls-9{font-size:72px;}.cls-1,.cls-5{font-family:AlmoniNeueDL4.0AAA-Light, "Almoni Neue DL 4.0 AAA";}.cls-1,.cls-2,.cls-4,.cls-5,.cls-6,.cls-9{font-weight:300;}.cls-2,.cls-6{font-family:AdaMF-Light, AdaMF;}.cls-3,.cls-8{font-family:Aharoni-Bold, Aharoni;font-weight:700;}.cls-4,.cls-9{font-family:PerpetuaTitlingMT-Light, Perpetua Titling MT;}.cls-5,.cls-9{fill:#339;}.cls-6,.cls-7,.cls-8{fill:#1b1464;}</style></defs><text class="cls-1" transform="translate(6 57.76)">appsus.</text><text class="cls-2" transform="translate(6 125.24)">appsus</text><path d="M207.61,466h-5.77v-5.62h-.14a12.08,12.08,0,0,1-11.07,6.47q-5.38,0-8.42-2.85a9.87,9.87,0,0,1-3.05-7.56q0-10.09,11.89-11.74l10.79-1.51q0-9.18-7.42-9.18a17.74,17.74,0,0,0-11.74,4.43v-5.91a22.31,22.31,0,0,1,12.23-3.37q12.69,0,12.7,13.43Zm-5.77-18.21-8.68,1.2a14,14,0,0,0-6,2c-1.36.95-2,2.64-2,5.05a5.52,5.52,0,0,0,1.88,4.31,7.27,7.27,0,0,0,5,1.67,9.26,9.26,0,0,0,7.08-3,10.7,10.7,0,0,0,2.8-7.61Z" transform="translate(-170 -265.54)"/><path d="M231.58,460.76h-.15v21.76h-5.76V430h5.76v6.33h.15A13.62,13.62,0,0,1,244,429.12q7,0,10.86,4.83c2.61,3.23,3.91,7.54,3.91,13q0,9-4.4,14.47t-12,5.43A12,12,0,0,1,231.58,460.76Zm-.15-14.52v5a10.71,10.71,0,0,0,2.9,7.57,10.34,10.34,0,0,0,15.58-.89q3-4,3-11.15c0-4-.93-7.15-2.78-9.42a9.2,9.2,0,0,0-7.52-3.41,10.24,10.24,0,0,0-8.09,3.5A12.84,12.84,0,0,0,231.43,446.24Z" transform="translate(-170 -265.54)"/><path d="M281.1,460.76H281v21.76H275.2V430H281v6.33h.14a13.65,13.65,0,0,1,12.45-7.17q7,0,10.86,4.83c2.6,3.23,3.9,7.54,3.9,13q0,9-4.39,14.47t-12,5.43A12.05,12.05,0,0,1,281.1,460.76ZM281,446.24v5a10.71,10.71,0,0,0,2.9,7.57,10.34,10.34,0,0,0,15.58-.89q3-4,3-11.15c0-4-.93-7.15-2.78-9.42a9.2,9.2,0,0,0-7.52-3.41,10.22,10.22,0,0,0-8.09,3.5A12.84,12.84,0,0,0,281,446.24Z" transform="translate(-170 -265.54)"/><path d="M322.55,464.66v-6.18A17,17,0,0,0,332.92,462q7.59,0,7.59-5.07a4.42,4.42,0,0,0-.65-2.44,6.46,6.46,0,0,0-1.76-1.78,13.75,13.75,0,0,0-2.6-1.38c-1-.41-2.07-.84-3.22-1.29a42.54,42.54,0,0,1-4.2-1.91,13,13,0,0,1-3-2.18,8.12,8.12,0,0,1-1.83-2.76,9.77,9.77,0,0,1-.61-3.62,8.56,8.56,0,0,1,1.16-4.49,10.25,10.25,0,0,1,3.09-3.27,14.53,14.53,0,0,1,4.41-2,19.39,19.39,0,0,1,5.12-.67,20.61,20.61,0,0,1,8.36,1.62v5.83a16.31,16.31,0,0,0-9.14-2.6,10.48,10.48,0,0,0-2.91.37,7.13,7.13,0,0,0-2.24,1A4.76,4.76,0,0,0,329,437a4.18,4.18,0,0,0-.51,2,4.94,4.94,0,0,0,.51,2.36,5.28,5.28,0,0,0,1.5,1.69,11.36,11.36,0,0,0,2.39,1.33c.93.4,2,.83,3.2,1.3a45.41,45.41,0,0,1,4.28,1.88,15.14,15.14,0,0,1,3.24,2.18,8.51,8.51,0,0,1,2.06,2.8,9,9,0,0,1,.72,3.76,8.91,8.91,0,0,1-1.18,4.64,10.24,10.24,0,0,1-3.15,3.27,14.25,14.25,0,0,1-4.53,1.93,22,22,0,0,1-5.38.64A20.37,20.37,0,0,1,322.55,464.66Z" transform="translate(-170 -265.54)"/><path d="M391.58,466h-5.76v-5.69h-.14a11.85,11.85,0,0,1-11.11,6.54q-12.87,0-12.87-15.33V430h5.73v20.6q0,11.4,8.72,11.4a8.8,8.8,0,0,0,6.94-3.12,11.86,11.86,0,0,0,2.73-8.13V430h5.76Z" transform="translate(-170 -265.54)"/><path d="M408.24,464.66v-6.18A17.07,17.07,0,0,0,418.61,462q7.61,0,7.6-5.07a4.42,4.42,0,0,0-.65-2.44,6.61,6.61,0,0,0-1.76-1.78,14.06,14.06,0,0,0-2.6-1.38c-1-.41-2.07-.84-3.22-1.29a42.54,42.54,0,0,1-4.2-1.91,12.55,12.55,0,0,1-3-2.18,8.12,8.12,0,0,1-1.83-2.76,9.76,9.76,0,0,1-.62-3.62,8.65,8.65,0,0,1,1.16-4.49,10.39,10.39,0,0,1,3.1-3.27,14.42,14.42,0,0,1,4.41-2,19.37,19.37,0,0,1,5.11-.67,20.62,20.62,0,0,1,8.37,1.62v5.83a16.33,16.33,0,0,0-9.14-2.6,10.55,10.55,0,0,0-2.92.37,7.18,7.18,0,0,0-2.23,1,4.76,4.76,0,0,0-1.44,1.6,4.18,4.18,0,0,0-.51,2,4.94,4.94,0,0,0,.51,2.36,5.37,5.37,0,0,0,1.49,1.69,11.88,11.88,0,0,0,2.39,1.33c.94.4,2,.83,3.2,1.3a44.53,44.53,0,0,1,4.29,1.88,15.39,15.39,0,0,1,3.24,2.18,8.48,8.48,0,0,1,2.05,2.8,9,9,0,0,1,.72,3.76,8.91,8.91,0,0,1-1.17,4.64,10.24,10.24,0,0,1-3.15,3.27,14.31,14.31,0,0,1-4.54,1.93,21.94,21.94,0,0,1-5.37.64A20.44,20.44,0,0,1,408.24,464.66Z" transform="translate(-170 -265.54)"/><text class="cls-3" transform="translate(6 271.91)">appsus</text><text class="cls-4" transform="translate(0 373.9)">appsus</text><text class="cls-5" transform="translate(344 57.76)">appsus.</text><text class="cls-6" transform="translate(350 125.24)">appsus</text><path class="cls-7" d="M545.61,466h-5.77v-5.62h-.14a12.08,12.08,0,0,1-11.07,6.47q-5.39,0-8.42-2.85a9.87,9.87,0,0,1-3.05-7.56q0-10.09,11.89-11.74l10.79-1.51q0-9.18-7.42-9.18a17.74,17.74,0,0,0-11.74,4.43v-5.91a22.31,22.31,0,0,1,12.23-3.37q12.69,0,12.7,13.43Zm-5.77-18.21-8.68,1.2a14,14,0,0,0-6,2c-1.36.95-2,2.64-2,5.05a5.52,5.52,0,0,0,1.88,4.31,7.27,7.27,0,0,0,5,1.67,9.26,9.26,0,0,0,7.08-3,10.7,10.7,0,0,0,2.8-7.61Z" transform="translate(-170 -265.54)"/><path class="cls-7" d="M569.58,460.76h-.15v21.76h-5.76V430h5.76v6.33h.15A13.62,13.62,0,0,1,582,429.12q7,0,10.86,4.83c2.61,3.23,3.91,7.54,3.91,13q0,9-4.4,14.47t-12,5.43A12,12,0,0,1,569.58,460.76Zm-.15-14.52v5a10.71,10.71,0,0,0,2.9,7.57,10.34,10.34,0,0,0,15.58-.89q3-4,3-11.15c0-4-.93-7.15-2.78-9.42a9.2,9.2,0,0,0-7.52-3.41,10.24,10.24,0,0,0-8.09,3.5A12.84,12.84,0,0,0,569.43,446.24Z" transform="translate(-170 -265.54)"/><path class="cls-7" d="M619.1,460.76H619v21.76H613.2V430H619v6.33h.14a13.65,13.65,0,0,1,12.45-7.17q7,0,10.86,4.83c2.6,3.23,3.9,7.54,3.9,13q0,9-4.39,14.47t-12,5.43A12.05,12.05,0,0,1,619.1,460.76ZM619,446.24v5a10.71,10.71,0,0,0,2.9,7.57,10.34,10.34,0,0,0,15.58-.89q3-4,3-11.15c0-4-.93-7.15-2.78-9.42a9.2,9.2,0,0,0-7.52-3.41,10.22,10.22,0,0,0-8.09,3.5A12.84,12.84,0,0,0,619,446.24Z" transform="translate(-170 -265.54)"/><path class="cls-7" d="M660.55,464.66v-6.18A17,17,0,0,0,670.92,462q7.59,0,7.59-5.07a4.42,4.42,0,0,0-.65-2.44,6.46,6.46,0,0,0-1.76-1.78,13.75,13.75,0,0,0-2.6-1.38c-1-.41-2.07-.84-3.22-1.29a42.54,42.54,0,0,1-4.2-1.91,13,13,0,0,1-3-2.18,8.12,8.12,0,0,1-1.83-2.76,9.77,9.77,0,0,1-.61-3.62,8.56,8.56,0,0,1,1.16-4.49,10.25,10.25,0,0,1,3.09-3.27,14.53,14.53,0,0,1,4.41-2,19.39,19.39,0,0,1,5.12-.67,20.61,20.61,0,0,1,8.36,1.62v5.83a16.31,16.31,0,0,0-9.14-2.6,10.48,10.48,0,0,0-2.91.37,7.13,7.13,0,0,0-2.24,1A4.76,4.76,0,0,0,667,437a4.18,4.18,0,0,0-.51,2,4.94,4.94,0,0,0,.51,2.36,5.28,5.28,0,0,0,1.5,1.69,11.36,11.36,0,0,0,2.39,1.33c.93.4,2,.83,3.2,1.3a45.41,45.41,0,0,1,4.28,1.88,15.14,15.14,0,0,1,3.24,2.18,8.51,8.51,0,0,1,2.06,2.8,9,9,0,0,1,.72,3.76,8.91,8.91,0,0,1-1.18,4.64,10.24,10.24,0,0,1-3.15,3.27,14.25,14.25,0,0,1-4.53,1.93,22,22,0,0,1-5.38.64A20.37,20.37,0,0,1,660.55,464.66Z" transform="translate(-170 -265.54)"/><path class="cls-7" d="M729.58,466h-5.76v-5.69h-.14a11.85,11.85,0,0,1-11.11,6.54q-12.87,0-12.87-15.33V430h5.73v20.6q0,11.4,8.72,11.4a8.8,8.8,0,0,0,6.94-3.12,11.86,11.86,0,0,0,2.73-8.13V430h5.76Z" transform="translate(-170 -265.54)"/><path class="cls-7" d="M746.24,464.66v-6.18A17.07,17.07,0,0,0,756.61,462q7.6,0,7.6-5.07a4.42,4.42,0,0,0-.65-2.44,6.61,6.61,0,0,0-1.76-1.78,14.06,14.06,0,0,0-2.6-1.38c-1-.41-2.07-.84-3.22-1.29a42.54,42.54,0,0,1-4.2-1.91,12.55,12.55,0,0,1-3-2.18,8.12,8.12,0,0,1-1.83-2.76,9.76,9.76,0,0,1-.62-3.62,8.65,8.65,0,0,1,1.16-4.49,10.39,10.39,0,0,1,3.1-3.27,14.42,14.42,0,0,1,4.41-2,19.37,19.37,0,0,1,5.11-.67,20.62,20.62,0,0,1,8.37,1.62v5.83a16.33,16.33,0,0,0-9.14-2.6,10.55,10.55,0,0,0-2.92.37,7.18,7.18,0,0,0-2.23,1,4.76,4.76,0,0,0-1.44,1.6,4.18,4.18,0,0,0-.51,2,4.94,4.94,0,0,0,.51,2.36,5.37,5.37,0,0,0,1.49,1.69,11.88,11.88,0,0,0,2.39,1.33c.94.4,2,.83,3.2,1.3a44.53,44.53,0,0,1,4.29,1.88,15.39,15.39,0,0,1,3.24,2.18,8.48,8.48,0,0,1,2,2.8,9,9,0,0,1,.72,3.76,8.91,8.91,0,0,1-1.17,4.64,10.24,10.24,0,0,1-3.15,3.27,14.31,14.31,0,0,1-4.54,1.93,21.94,21.94,0,0,1-5.37.64A20.44,20.44,0,0,1,746.24,464.66Z" transform="translate(-170 -265.54)"/><text class="cls-8" transform="translate(338 271.91)">appsus</text><text class="cls-9" transform="translate(334 351.9)">appsus</text></svg>
