<svg id="Capa_1" enable-background="new 0 0 520 520" height="512" viewBox="0 0 520 520" width="512" xmlns="http://www.w3.org/2000/svg"><g><path d="m455 45v430c0 24.81-20.19 45-45 45h-300c-24.81 0-45-20.19-45-45v-430c0-24.81 20.19-45 45-45h300c24.81 0 45 20.19 45 45z" fill="#fdd835"/><g fill="#f57f17"><path d="m135 80c0 8.28-6.72 15-15 15h-55v-30h55c8.28 0 15 6.72 15 15z"/><path d="m135 140c0 8.28-6.72 15-15 15h-55v-30h55c8.28 0 15 6.72 15 15z"/><path d="m135 200c0 8.28-6.72 15-15 15h-55v-30h55c8.28 0 15 6.72 15 15z"/><path d="m135 260c0 8.28-6.72 15-15 15h-55v-30h55c8.28 0 15 6.72 15 15z"/><path d="m135 320c0 8.28-6.72 15-15 15h-55v-30h55c8.28 0 15 6.72 15 15z"/><path d="m135 380c0 8.28-6.72 15-15 15h-55v-30h55c8.28 0 15 6.72 15 15z"/><path d="m135 440c0 8.28-6.72 15-15 15h-55v-30h55c8.28 0 15 6.72 15 15z"/></g><path d="m380 105h-200c-8.284 0-15 6.716-15 15v80c0 8.284 6.716 15 15 15h200c8.284 0 15-6.716 15-15v-80c0-8.284-6.716-15-15-15z" fill="#e0f7fa"/><path d="m360 275h-160c-8.284 0-15-6.716-15-15s6.716-15 15-15h160c8.284 0 15 6.716 15 15s-6.716 15-15 15z" fill="#64b5f6"/><path d="m320 335h-80c-8.284 0-15-6.716-15-15s6.716-15 15-15h80c8.284 0 15 6.716 15 15s-6.716 15-15 15z" fill="#64b5f6"/><path d="m410 0h-150v520h150c24.81 0 45-20.19 45-45v-430c0-24.81-20.19-45-45-45z" fill="#fbc02d"/><path d="m380 105h-120v110h120c8.284 0 15-6.716 15-15v-80c0-8.284-6.716-15-15-15z" fill="#b2ebf2"/><g fill="#1e88e5"><path d="m360 245h-100v30h100c8.284 0 15-6.716 15-15s-6.716-15-15-15z"/><path d="m320 305h-60v30h60c8.284 0 15-6.716 15-15s-6.716-15-15-15z"/></g></g></svg>