<?xml version="1.0" encoding="iso-8859-1"?>
<!-- Generator: Adobe Illustrator 19.0.0, SVG Export Plug-In . SVG Version: 6.00 Build 0)  -->
<svg version="1.1" id="Capa_1" xmlns="http://www.w3.org/2000/svg" xmlns:xlink="http://www.w3.org/1999/xlink" x="0px" y="0px"
	 viewBox="0 0 512 512" style="enable-background:new 0 0 512 512;" xml:space="preserve">
<path style="fill:#81C8EE;" d="M506.3,216.651l-8.399,37.5l-96.7,96L361,360.95l-15,27.299H178.299L151,360.95l-42.9-7.8
	l-11.7-12.001L21.301,267.35L5.7,216.651c2.1-3.6,4.501-7.2,7.5-10.201l182.5-181.5c16.499-16.8,38.401-24.9,60.3-24.9
	s43.801,8.101,60.3,24.901l182.5,181.5C501.799,209.451,504.2,213.051,506.3,216.651z"/>
<path style="fill:#4DBBEB;" d="M506.3,216.651l-8.399,37.5l-96.7,96L361,360.95l-15,27.299h-90V0.05
	c21.899,0,43.801,8.101,60.3,24.901l182.5,181.5C501.799,209.451,504.2,213.051,506.3,216.651z"/>
<path style="fill:#FEDB41;" d="M376,60.95H136c-24.901,0-45,20.099-45,45v270c0,8.399,6.599,15,15,15h300c8.401,0,15-6.601,15-15
	v-270C421,81.05,400.901,60.95,376,60.95z"/>
<path style="fill:#FCBF29;" d="M421,105.95v270c0,8.399-6.599,15-15,15H256v-330h120C400.901,60.95,421,81.05,421,105.95z"/>
<path style="fill:#B7E0F6;" d="M498.8,498.75c-8.101,8.099-19.501,13.2-31.8,13.2H45c-12.299,0-23.699-5.101-31.8-13.2v-34.2
	l102.7-103.001l35.1-0.599l62.701-62.701C225.4,286.549,240.7,280.55,256,280.55s30.601,5.999,42.299,17.699L361,360.95h40.499
	l94.9,94.6L498.8,498.75z"/>
<g>
	<path style="fill:#A4D9F5;" d="M498.8,498.75c-8.101,8.099-19.501,13.2-31.8,13.2H256v-231.4c15.3,0,30.601,5.999,42.299,17.699
		L361,360.95h40.499l94.9,94.6L498.8,498.75z"/>
	<path style="fill:#A4D9F5;" d="M5.773,216.724C2.13,223.306,0,230.647,0,238.372V466.95c0,12.407,5.046,23.657,13.195,31.805
		L151,360.95L5.773,216.724z"/>
</g>
<path style="fill:#81C8EE;" d="M512,238.372c0-7.725-2.13-15.066-5.773-21.649L361,360.95l137.805,137.805
	C506.954,490.608,512,479.358,512,466.95V238.372z"/>
<g>
	<path style="fill:#FEA832;" d="M226,180.95h-60c-8.291,0-15-6.709-15-15s6.709-15,15-15h60c8.291,0,15,6.709,15,15
		S234.291,180.95,226,180.95z"/>
	<path style="fill:#FEA832;" d="M361,225.95c0,8.399-6.599,15-15,15H166c-8.401,0-15-6.601-15-15c0-8.401,6.599-15,15-15h180
		C354.401,210.95,361,217.55,361,225.95z"/>
</g>
<path style="fill:#FE9923;" d="M361,225.95c0,8.399-6.599,15-15,15h-90v-30h90C354.401,210.95,361,217.55,361,225.95z"/>
<g>
</g>
<g>
</g>
<g>
</g>
<g>
</g>
<g>
</g>
<g>
</g>
<g>
</g>
<g>
</g>
<g>
</g>
<g>
</g>
<g>
</g>
<g>
</g>
<g>
</g>
<g>
</g>
<g>
</g>
</svg>
